<svg width="80" height="80" viewBox="0 0 80 80" fill="none" xmlns="http://www.w3.org/2000/svg">
<path d="M11.9868 11.96L16.3651 61.5767C16.5468 63.6384 17.9818 65.3767 19.9718 65.945L37.7101 71.0134C39.2067 71.4417 40.7918 71.4417 42.2884 71.0134L60.0268 65.945C62.0168 65.3767 63.4518 63.64 63.6334 61.5767L68.0118 11.96C68.1851 10.01 66.6501 8.33337 64.6934 8.33337H15.3068C13.3501 8.33337 11.8151 10.01 11.9868 11.96Z" fill="#898E98"/>
<path d="M40 41.6666V35H54.3333L53.1667 54.1666L40 58.5V51.5L46.8333 49.1666L47.3333 41.6666H40ZM54.8333 28.3333L55.3333 21.6666H40V28.3333H54.8333Z" fill="white"/>
<path d="M39.9999 51.5V58.5L26.8333 54.1666L26.1666 45H32.8333L33.1666 49.1666L39.9999 51.5ZM31.8333 28.3333H39.9999V21.6666H24.8333L25.9999 41.6666H39.9999V35H32.3333L31.8333 28.3333Z" fill="white"/>
</svg>
