<svg width="80" height="80" viewBox="0 0 80 80" fill="none" xmlns="http://www.w3.org/2000/svg">
<path d="M11.9868 11.96L16.3651 61.5767C16.5468 63.6384 17.9818 65.3767 19.9718 65.945L37.7101 71.0134C39.2067 71.4417 40.7918 71.4417 42.2884 71.0134L60.0268 65.945C62.0168 65.3767 63.4518 63.64 63.6334 61.5767L68.0118 11.96C68.1851 10.01 66.6501 8.33337 64.6934 8.33337H15.3068C13.3501 8.33337 11.8151 10.01 11.9868 11.96Z" fill="#898E98"/>
<path d="M55.1667 21.6666H40V28.3333H48.1667L47.6667 35H40V41.6666H47.3333L46.8333 49.1666L40 51.5V58.5L53.1667 54.1666L54.3333 35L55.1667 21.6666Z" fill="white"/>
<path d="M40.0001 21.6666V28.3333H25.1667L24.6667 21.6666H40.0001ZM32.3334 35L32.6667 41.6666H40.0001V35H32.3334ZM33.0001 45H26.3334L26.8334 54.1666L40.0001 58.5V51.5L33.1667 49.1666L33.0001 45Z" fill="white"/>
</svg>
