<svg width="88" height="88" viewBox="0 0 88 88" fill="none" xmlns="http://www.w3.org/2000/svg">
<path d="M19 77C14.5817 77 11 73.4183 11 69V19C11 14.5817 14.5817 11 19 11H69C73.4183 11 77 14.5817 77 19V69C77 73.4183 73.4183 77 69 77H19Z" fill="#2ED573"/>
<path d="M54.1531 60.4029C55.4218 62.4635 56.8004 64.438 59.7209 64.438C62.1739 64.438 63.4609 63.2189 63.4609 61.5322C63.4609 59.5137 62.1299 58.7969 59.4313 57.6217L57.9518 56.991C53.6819 55.1797 50.8421 52.91 50.8421 48.1159C50.8421 43.6975 54.2246 40.3352 59.5101 40.3352C63.2739 40.3352 65.9781 41.6387 67.9288 45.0524L63.3198 47.9985C62.3059 46.1872 61.2096 45.474 59.5101 45.474C57.7758 45.474 56.6776 46.5685 56.6776 47.9985C56.6776 49.7659 57.7776 50.4809 60.3168 51.5754L61.7963 52.206C66.8288 54.3492 69.6668 56.5382 69.6668 61.4589C69.6668 66.7609 65.4794 69.6667 59.8584 69.6667C54.3603 69.6667 51.2381 66.9075 49.5001 63.492L54.1531 60.4029ZM32.9121 60.5532C33.8398 62.2142 35.2496 63.492 37.2773 63.492C39.2169 63.492 40.3334 62.7257 40.3334 59.7465V40.3334H46.4439V60.6852C46.4439 66.858 42.8634 69.6667 37.6348 69.6667C32.9103 69.6667 29.5003 66.4657 28.1106 63.492L32.9121 60.5532Z" fill="white"/>
</svg>
